<svg version="1.1" id="Layer_1" xmlns="http://www.w3.org/2000/svg" xmlns:xlink="http://www.w3.org/1999/xlink" x="0px" y="0px"
	 width="350.8px" height="77.6px" viewBox="0 0 350.8 77.6" style="enable-background:new 0 0 350.8 77.6;" xml:space="preserve">
<style type="text/css">
<![CDATA[
	.st0{clip-path:url(#SVGID_2_);fill:#555759;}
	.st1{clip-path:url(#SVGID_2_);fill:#FF9E16;}
]]>
</style>
<g>
	<defs>
		<rect id="SVGID_1_" y="0" width="350.8" height="77.6"/>
	</defs>
	<clipPath id="SVGID_2_">
		<use xlink:href="#SVGID_1_"  style="overflow:visible;"/>
	</clipPath>
	<path class="st0" d="M173,53.9c-2.6,1.4-6.4,1.3-10.6,1.3h-6.8c-2.3,0-7.5,0.5-10.3-2.4c-1.1-1.1-1.4-2.8-1.5-3.7v-0.7h9.2v0.8
		c0,0.4,0.2,0.7,0.5,1c0.5,0.4,1.7,0.3,2.8,0.3h6.7c1.7,0,4.3-0.4,4-2c-0.3-1.2-1.9-1.4-3.3-1.4h-10.1c-3.2,0-6.5-0.4-8-2
		c-1.4-1.4-1.5-2.9-1.5-3.8v-0.9c0-2.1,0.5-3.5,2.3-4.9c2-1.7,8.7-1.8,11-1.8h3.3c4.9,0,10.5,0.1,12.4,2.3c0.9,1,1.3,1.9,1.3,3.2
		v0.9h-8.8c0-0.1,0-0.6-0.3-1c-0.4-0.4-2.1-0.4-2.7-0.4h-5.9c-1.1,0-2.5,0.1-2.9,0.4c-0.5,0.3-0.9,1-0.9,1.5c0.1,1,1.3,1.3,2.4,1.3
		h10c3.4,0,7.1,0.3,8.7,1.6c1.9,1.6,1.9,2.9,1.8,4.3v1.7C175.6,50.6,175.4,52.6,173,53.9"/>
	<path class="st0" d="M180.8,25.4h8.9v6.5h-8.9V25.4z M180.8,33.7h8.9v21.6h-8.9V33.7z"/>
	<path class="st0" d="M238,55.3V43.7c0-0.9-0.2-2.2-0.9-2.9c-0.8-0.9-2.9-1-4.9-1H231c-1.9,0-3.6,0.5-4.5,1.4c-0.5,0.5-1,1.8-1,2.7
		v11.5h-8.8V44c0-1-0.2-2.5-1-3.2c-0.9-0.9-2.7-1-4.2-1h-1.7c-1.6,0-3.5,0-4.7,1.1c-0.7,0.6-1,2.1-1,3v11.3h-9V33.7h8.5v3.9
		c0.7-0.7,1.1-1.4,2.1-2.1c2-1.4,3.8-1.8,6.3-1.8h2c2.7,0,5.9,0.7,7.7,1.9c1.2,0.9,1.8,1.7,2.4,3c0.3-1.2,0.9-2,1.7-2.9
		c1.9-1.9,4.9-2.1,6.1-2.1h3.5c2.6,0,6.9,0.4,9,2.5c1.9,1.8,2.3,4.4,2.3,5.7v13.5H238z"/>
	<path class="st0" d="M273.2,48.7c0,0.5-0.1,0.9-0.7,1.4c-0.6,0.4-1.6,0.4-2.2,0.4h-8.5c-0.4,0-1.4,0-1.9-0.4
		c-0.4-0.3-0.6-0.7-0.6-1.3v-0.6c0-0.7,0.4-1.2,0.9-1.5c0.5-0.3,1.7-0.4,2.3-0.4h7.6c0.9,0,1.7,0.1,2.3,0.4c0.4,0.3,0.7,0.7,0.7,1.1
		V48.7z M281.9,55.3V40.8c0-1.3-0.6-4-2.5-5.3c-2.5-1.8-7.3-1.8-10.7-1.8h-3.5c-2.6,0-9.8,0.1-12,2.5c-0.9,0.9-1.4,2.4-1.4,4.1v0.4
		h8.7c0,0-0.2-1.3,0.7-1.6c0.4-0.1,1.6-0.2,2.2-0.2h6.1c1.2,0,2.2,0,3,0.8c0.3,0.4,0.7,0.7,0.7,1.3v2.5c-0.6-0.4-1-0.7-1.7-1
		c-1.6-0.7-3-0.8-5.6-0.8h-1.7c-2.8,0-7.8,0.2-9.9,1.1c-2.4,1.1-3.2,3-3.3,5.4v0.9c0,1.8,0.3,3.5,2.4,5.1c1.6,1.2,5.4,1,8.9,1h3.1
		c1.2,0,3.7,0.2,5.8-0.8c1.1-0.6,2.2-1.6,2.3-1.6v2.4H281.9z"/>
	<path class="st0" d="M305.1,43.7V43c0-0.6-0.2-1.5-0.8-2.2c-0.8-0.8-1.8-0.9-3-0.9h-1.5c-0.9,0-2.2,0.1-3.2,0.8
		c-1.4,0.9-1.7,2.2-1.7,3.7v10.8h-8.7V33.7h8.6v4c0.4-0.2,0.8-1.8,2-2.6c1.9-1.2,2.9-1.2,5.4-1.4h1.8c1.8,0,5.4,0.6,7.1,1.8
		c1.9,1.4,2.1,4.3,2.1,7.1v1.1H305.1z"/>
	<path class="st0" d="M341.4,45.1c0,1.4,0.2,2.3-1,3.4c-0.8,0.9-3.2,0.9-5.1,0.9h-3.8c-1,0-3.8,0.1-4.7-1c-1.1-1.2-1-2.3-1-3v-1.8
		c0-1.7,0.3-2.6,1.4-3.5c0.8-0.8,3.1-0.8,5-0.8h3.2c0.6,0,4.2,0.1,5,0.9c1.1,1.2,1,1.9,1,3.1V45.1z M350.8,55.3V25.4h-9.1v12.1
		c-0.1-0.1-1.1-1.7-2.9-2.6c-1.6-0.9-3.5-1.2-5.8-1.2h-2.4c-3.7,0-6.2-0.1-9.4,1.5c-4,2.1-4,4.9-4,7.2v4.1c0,1.7,0,5.2,2.3,7
		c2.9,2.1,6.3,1.9,10.3,1.9h2.3c2.1,0,4.5,0.1,6.2-0.6c1.5-0.7,2.4-1.3,3.4-2.5v3.1H350.8z"/>
	<path class="st1" d="M51.1,9.5c14-7.9,31.1-5.7,42.1,4.3C80.9,0.4,62.2-4.1,47.8,4c-14.4,8.1-19.7,26.2-14,43.2
		C30.4,33,37,17.4,51.1,9.5"/>
	<path class="st1" d="M102.9,30.3c3.4,14.3-3.2,29.8-17.2,37.7c-14,7.9-31.1,5.8-42.1-4.3c12.3,13.4,31,17.8,45.3,9.7
		C103.3,65.4,108.7,47.3,102.9,30.3"/>
	<path class="st0" d="M131.3,27.5H67.2c-1.9,0-3.5,0.5-3.5,1.8c0,3.7,22.5,8.5,22.5,18.9c0,5.7-2,13.3-21.3,13.3H0V51.2h64.4
		c3.5,0,5.6-0.8,5.6-2.4c0-4.7-21.7-8.5-21.7-19.1c0-9.2,8.9-12.5,18.3-12.5h64.6V27.5z"/>
	<path class="st0" d="M128,30c1.5,0,2.7,1.2,2.7,2.7c0,1.5-1.2,2.7-2.7,2.7c-1.5,0-2.7-1.2-2.7-2.7C125.2,31.2,126.4,30,128,30
		 M128,29.5c-1.8,0-3.3,1.5-3.3,3.2c0,1.8,1.5,3.2,3.3,3.2c1.8,0,3.2-1.4,3.2-3.2C131.2,30.9,129.7,29.5,128,29.5 M128.5,32.9
		c0.6,0,1.1-0.3,1.1-1c0-0.8-0.6-1-1.3-1h-1.6v3.6h0.5V33h0.7l1,1.6h0.6L128.5,32.9z M127.3,31.3h1c0.4,0,0.9,0,0.9,0.5
		c0,0.4-0.2,0.7-0.9,0.7h-1V31.3z"/>
	<path class="st0" d="M144.7,68.7h1.3v0.7c0,1,0.6,1.4,2.3,1.4h4.4c2.1,0,2.7-0.4,2.7-1.8c0-1.3-0.5-1.6-2.3-1.6h-2.7
		c-4.4,0-5.8-0.3-5.8-2.9c0-2.3,1.4-2.8,4.4-2.8h3.1c3.5,0,4.4,0.9,4.4,2.6v0.3h-1.3c0-1.6-0.2-1.9-4-1.9h-1.5
		c-2.8,0-3.7,0.1-3.7,1.8c0,1.2,0.4,1.6,2.6,1.6h4.2c2.8,0,3.9,0.8,3.9,2.5v0.6c0,2.5-2.1,2.6-4.2,2.6h-4c-2.1,0-3.9-0.3-3.9-2.5
		V68.7z"/>
	<path class="st0" d="M170.7,70.6L170.7,70.6c-0.5,1.1-1.5,1.3-3,1.3h-1.9c-2.3,0-3.1-1.1-3.1-2.4v-4.8h1.3v4.5c0,1,0.3,1.7,2.7,1.7
		h0.3c2.9,0,3.6-0.5,3.6-2.2v-4h1.3v7h-1.2V70.6z"/>
	<path class="st0" d="M177.5,69.4h1.2v0.3c0,0.9,0.5,1.2,1.8,1.2h2.7c1.9,0,2.5-0.1,2.5-1.1v-0.1c0-0.7-0.2-1-1.7-1H180
		c-1.8,0-2.4-0.5-2.4-1.9v-0.4c0-1.1,0.7-1.8,3.8-1.8h1.9c2.8,0,3.2,0.8,3.2,1.8v0.4h-1.2v-0.1c0-1.1-0.8-1.1-2.1-1.1H181
		c-1.8,0-2.2,0.2-2.2,1v0.3c0,0.6,0.2,0.9,1.5,0.9h3.3c1.9,0,3.2,0.2,3.2,2.1v0c0,2-1.9,2-3.5,2h-2.3c-1.9,0-3.6,0-3.6-2.1V69.4z"/>
	<path class="st0" d="M192.5,64.8h1.2v1.1h0c0.4-0.9,1.4-1.2,2.5-1.2h2.4c1.8,0,3.4,0.5,3.4,3v1.2c0,2.3-1.1,3.1-3.6,3.1h-2.4
		c-1.3,0-1.9-0.3-2.2-1.1h0v3.4h-1.3V64.8z M200.7,67.6c0-1.4-0.5-2-2.2-2H196c-1.6,0-2.3,0.8-2.3,2V69c0,1.7,1.1,2,2.4,2h2.2
		c1.5,0,2.3-0.3,2.3-1.9V67.6z"/>
	<path class="st0" d="M207.2,67.5c0-2.6,1.9-2.8,3.6-2.8h2c2.2,0,3.9,0.5,3.9,3.1v0.8h-8.3v0.4c0,1.6,0.8,2,3,2h1.7
		c1.6,0,2.2-0.2,2.3-1.3h1.3v0.1c0,1.6-1.4,2.1-3.7,2.1h-2.3c-1.6,0-3.5-0.3-3.5-2.9V67.5z M215.5,67.1c0-0.7-0.6-1.4-2.6-1.4H211
		c-2,0-2.4,0.3-2.6,1.9h7V67.1z"/>
	<path class="st0" d="M222.3,64.8h1.2V66h0c0.5-1.1,1.4-1.3,3-1.3h1.9c2.3,0,3.1,1.1,3.1,2.4v4.8h-1.3v-4.5c0-1-0.3-1.7-2.7-1.7
		h-0.3c-2.9,0-3.6,0.5-3.6,2.2v4h-1.3V64.8z"/>
	<path class="st0" d="M237.1,69.4h1.2v0.3c0,0.9,0.5,1.2,1.8,1.2h2.7c1.9,0,2.5-0.1,2.5-1.1v-0.1c0-0.7-0.2-1-1.7-1h-3.9
		c-1.8,0-2.4-0.5-2.4-1.9v-0.4c0-1.1,0.7-1.8,3.8-1.8h1.9c2.8,0,3.2,0.8,3.2,1.8v0.4H245v-0.1c0-1.1-0.8-1.1-2.1-1.1h-2.2
		c-1.8,0-2.2,0.2-2.2,1v0.3c0,0.6,0.2,0.9,1.5,0.9h3.3c1.9,0,3.2,0.2,3.2,2.1v0c0,2-1.9,2-3.5,2h-2.3c-1.9,0-3.6,0-3.6-2.1V69.4z"/>
	<path class="st0" d="M252.3,61.8h1.3v1.3h-1.3V61.8z M252.3,64.8h1.3v7h-1.3V64.8z"/>
	<path class="st0" d="M259.4,67.5c0-2.3,1.7-2.9,4.1-2.9h1.8c2.4,0,4.1,0.5,4.1,2.9v1.5c0,2.3-1.7,2.9-4.1,2.9h-1.8
		c-2.4,0-4.1-0.5-4.1-2.9V67.5z M268.1,67.6c0-1.6-1-2-2.5-2h-2.5c-1.5,0-2.5,0.3-2.5,2V69c0,1.6,1,2,2.5,2h2.5c1.5,0,2.5-0.3,2.5-2
		V67.6z"/>
	<path class="st0" d="M275.1,64.8h1.2V66h0c0.5-1.1,1.4-1.3,3-1.3h1.9c2.3,0,3.1,1.1,3.1,2.4v4.8H283v-4.5c0-1-0.3-1.7-2.7-1.7h-0.3
		c-2.9,0-3.6,0.5-3.6,2.2v4h-1.3V64.8z"/>
	<path class="st0" d="M289.9,69.4h1.2v0.3c0,0.9,0.5,1.2,1.8,1.2h2.7c1.9,0,2.5-0.1,2.5-1.1v-0.1c0-0.7-0.2-1-1.7-1h-3.9
		c-1.8,0-2.4-0.5-2.4-1.9v-0.4c0-1.1,0.7-1.8,3.8-1.8h1.9c2.8,0,3.2,0.8,3.2,1.8v0.4h-1.2v-0.1c0-1.1-0.8-1.1-2.1-1.1h-2.2
		c-1.8,0-2.2,0.2-2.2,1v0.3c0,0.6,0.2,0.9,1.5,0.9h3.3c1.9,0,3.2,0.2,3.2,2.1v0c0,2-1.9,2-3.5,2h-2.3c-1.8,0-3.6,0-3.6-2.1V69.4z"/>
	<rect x="315.7" y="61.8" class="st0" width="1.4" height="10"/>
	<path class="st0" d="M323.4,64.8h1.2V66h0c0.5-1.1,1.4-1.3,3-1.3h1.9c2.3,0,3.1,1.1,3.1,2.4v4.8h-1.3v-4.5c0-1-0.3-1.7-2.7-1.7
		h-0.3c-2.9,0-3.6,0.5-3.6,2.2v4h-1.3V64.8z"/>
	<path class="st0" d="M338.1,67.5c0-2.6,1.9-2.8,3.7-2.8h2.1c2.3,0,3.3,0.9,3.3,2.4v0.2H346v-0.2c0-1.2-0.8-1.4-2.1-1.4h-2.3
		c-1.2,0-2.3,0.2-2.3,1.9V69c0,1.6,1,1.9,2.5,1.9h2.1c1.2,0,2.1-0.3,2.1-1.5v-0.2h1.2v0.2c0,1.8-0.9,2.5-3.3,2.5h-2.8
		c-1.1,0-3.1-0.3-3.1-2.8V67.5z"/>
	<rect x="349" y="70.1" class="st0" width="1.6" height="1.7"/>
</g>
</svg>
