<svg xmlns="http://www.w3.org/2000/svg" width="318" height="61" viewBox="0 0 318 61" fill="none">
    <g class="logo-letters">
        <path d="M122.483 32.2631L120.039 38.5431H124.953L122.483 32.2631ZM120.793 26.3757H124.459L133.221 46.6024H128.229L126.487 42.3111H118.687L116.997 46.6024H112.109L120.793 26.3757Z" fill="#101820"></path>
        <path d="M151.499 45.1894C148.873 46.5762 146.013 47.1257 143.075 47.1257C136.783 47.1257 132.207 42.9914 132.207 36.5021C132.207 30.0128 136.783 25.8785 143.075 25.8785C146.247 25.8785 149.055 26.585 151.083 28.469L147.963 31.8968C146.767 30.6408 145.337 29.9867 143.075 29.9867C139.279 29.9867 136.809 32.7341 136.809 36.5021C136.809 40.2701 139.279 43.0176 143.075 43.0176C144.999 43.0176 146.403 42.4681 147.235 42.0233V38.7263H142.321L144.063 34.6181H151.499V45.1894Z" fill="#101820"></path>
        <path d="M154.463 26.3757H160.495L169.023 40.4533H169.101V26.3757H173.521V46.6286H167.723L158.961 32.2108H158.909V46.6286H154.463V26.3757Z" fill="#101820"></path>
        <path d="M181.113 26.3757H176.693V46.6024H181.113V26.3757Z" fill="#101820"></path>
        <path d="M197.363 31.6351C196.505 30.5885 195.205 29.9605 193.567 29.9605C190.213 29.9605 187.743 32.708 187.743 36.4759C187.743 40.2439 190.213 42.9914 193.411 42.9914C195.205 42.9914 196.661 42.1802 197.545 40.8196L201.237 43.5932C199.573 46.0006 196.713 47.0996 193.957 47.0996C187.691 47.0996 183.115 42.9652 183.115 36.4759C183.115 29.9866 187.691 25.8523 193.957 25.8523C196.193 25.8523 199.053 26.6112 200.743 28.8353L197.337 31.6351H197.363Z" fill="#101820"></path>
        <path d="M211.791 43.0176C215.561 43.0176 218.031 40.2701 218.031 36.5021C218.031 32.7341 215.561 29.9867 211.791 29.9867C208.021 29.9867 205.551 32.7341 205.551 36.5021C205.551 40.2701 208.021 43.0176 211.791 43.0176ZM211.791 25.8785C218.057 25.8785 222.633 30.0128 222.633 36.5021C222.633 42.9914 218.057 47.1257 211.791 47.1257C205.525 47.1257 200.949 42.9914 200.949 36.5021C200.949 30.0128 205.525 25.8785 211.791 25.8785Z" fill="#101820"></path>
        <path d="M232.826 26.3757H246.476V30.51H237.246V34.278H245.956V38.3861H237.246V42.4943H246.996V46.6286H232.826V26.3757Z" fill="#101820"></path>
        <path d="M258.228 32.2631L255.784 38.5431H260.698L258.228 32.2631ZM256.538 26.3757H260.204L268.94 46.6024H263.948L262.206 42.3111H254.406L252.716 46.6024H247.828L256.512 26.3757H256.538Z" fill="#101820"></path>
        <path d="M287.242 45.1894C284.642 46.5762 281.756 47.1257 278.818 47.1257C272.552 47.1257 267.977 42.9914 267.977 36.5021C267.977 30.0128 272.552 25.8785 278.818 25.8785C281.99 25.8785 284.824 26.585 286.826 28.469L283.706 31.8968C282.51 30.6408 281.054 29.9867 278.818 29.9867C275.048 29.9867 272.578 32.7341 272.578 36.5021C272.578 40.2701 275.048 43.0176 278.818 43.0176C280.742 43.0176 282.172 42.4681 282.978 42.0233V38.7263H278.064L279.806 34.6181H287.242V45.1894Z" fill="#101820"></path>
        <path d="M290.285 26.3757H294.705V42.4943H302.921V46.6286H290.285V26.3757Z" fill="#101820"></path>
        <path d="M304.299 26.3757V46.6286H318.001V42.4943H308.719V38.3861H317.429V34.278H308.719V30.51H317.949V26.3757H304.299Z" fill="#101820"></path>
    </g>
    <g class="logo-wing">
        <path d="M58.6296 3.63693L57.8496 17.9239L80.5212 30.353L58.6296 3.63693Z" fill="#101820"></path>
    </g>
    <path d="M18.2777 17.1389L45.0572 29.9605L0 28.2335L56.4969 47.2566H63.4388L59.1229 51.731L72.0706 56.5195L74.4106 60.837L75.9446 58.011L80.6765 57.7755L79.5065 55.9438L74.7486 55.6298L73.4226 49.0359L75.2686 45.9744L91.0243 45.9482L92.2463 46.7856L93.0522 43.9857L89.1783 40.8458V38.6478L14.2477 0.418457L18.2777 17.1389Z" fill="#F1C400"></path>
</svg>